name ./resultDataOpenSim/trcMotMarkerGrf/sub10/grf-03-01.mot
datacolumns 19
datarows 30
range 0.48000000 0.59600000
endheader

                time	     ground_force_vx	     ground_force_vy	     ground_force_vz	     ground_force_px	     ground_force_py	     ground_force_pz	   l_ground_force_vx	   l_ground_force_vy	   l_ground_force_vz	   l_ground_force_px	   l_ground_force_py	   l_ground_force_pz	     ground_torque_x	     ground_torque_y	     ground_torque_z	   l_ground_torque_x	   l_ground_torque_y	   l_ground_torque_z	
          0.48000000	         41.22823252	        473.06896289	        -19.46805327	         -0.79932360	          0.00000000	         -0.01974053	          0.00000000	          0.00000000	          0.00000000	          0.00000000	          0.00000000	          0.00000000	          0.00000000	          3.87247140	          0.00000000	          0.00000000	          0.00000000	          0.00000000	
          0.48400000	         43.19780876	        481.84106540	        -20.37374663	         -0.79637931	          0.00000000	         -0.01961495	          0.00000000	          0.00000000	          0.00000000	          0.00000000	          0.00000000	          0.00000000	          0.00000000	          3.91362058	          0.00000000	          0.00000000	          0.00000000	          0.00000000	
          0.48800000	         44.86270173	        491.19087309	        -20.80965494	         -0.79325332	          0.00000000	         -0.01951725	          0.00000000	          0.00000000	          0.00000000	          0.00000000	          0.00000000	          0.00000000	          0.00000000	          3.98757550	          0.00000000	          0.00000000	          0.00000000	          0.00000000	
          0.49200000	         45.88811274	        501.01130725	        -20.86854365	         -0.78992653	          0.00000000	         -0.01944535	          0.00000000	          0.00000000	          0.00000000	          0.00000000	          0.00000000	          0.00000000	          0.00000000	          4.08717105	          0.00000000	          0.00000000	          0.00000000	          0.00000000	
          0.49600000	         46.08718406	        511.20748781	        -20.72672856	         -0.78640304	          0.00000000	         -0.01939806	          0.00000000	          0.00000000	          0.00000000	          0.00000000	          0.00000000	          0.00000000	          0.00000000	          4.19951639	          0.00000000	          0.00000000	          0.00000000	          0.00000000	
          0.50000000	         45.49156865	        521.72770409	        -20.60510157	         -0.78273409	          0.00000000	         -0.01936688	          0.00000000	          0.00000000	          0.00000000	          0.00000000	          0.00000000	          0.00000000	          0.00000000	          4.30908627	          0.00000000	          0.00000000	          0.00000000	          0.00000000	
          0.50400000	         44.35905287	        532.56792166	        -20.72273721	         -0.77901132	          0.00000000	         -0.01933355	          0.00000000	          0.00000000	          0.00000000	          0.00000000	          0.00000000	          0.00000000	          0.00000000	          4.40117543	          0.00000000	          0.00000000	          0.00000000	          0.00000000	
          0.50800000	         43.11751532	        543.75942215	        -21.25089082	         -0.77534423	          0.00000000	         -0.01928570	          0.00000000	          0.00000000	          0.00000000	          0.00000000	          0.00000000	          0.00000000	          0.00000000	          4.46491393	          0.00000000	          0.00000000	          0.00000000	          0.00000000	
          0.51200000	         42.25932379	        555.35308660	        -22.27855727	         -0.77183860	          0.00000000	         -0.01921806	          0.00000000	          0.00000000	          0.00000000	          0.00000000	          0.00000000	          0.00000000	          0.00000000	          4.49516638	          0.00000000	          0.00000000	          0.00000000	          0.00000000	
          0.51600000	         42.21408719	        567.39904288	        -23.79822906	         -0.76858124	          0.00000000	         -0.01912765	          0.00000000	          0.00000000	          0.00000000	          0.00000000	          0.00000000	          0.00000000	          0.00000000	          4.49293564	          0.00000000	          0.00000000	          0.00000000	          0.00000000	
          0.52000000	         43.23933829	        579.93367050	        -25.71126370	         -0.76561894	          0.00000000	         -0.01901391	          0.00000000	          0.00000000	          0.00000000	          0.00000000	          0.00000000	          0.00000000	          0.00000000	          4.46427580	          0.00000000	          0.00000000	          0.00000000	          0.00000000	
          0.52400000	         45.36374734	        592.98804185	        -27.84944158	         -0.76296050	          0.00000000	         -0.01888137	          0.00000000	          0.00000000	          0.00000000	          0.00000000	          0.00000000	          0.00000000	          0.00000000	          4.41807171	          0.00000000	          0.00000000	          0.00000000	          0.00000000	
          0.52800000	         48.39995497	        606.59979007	        -30.01155706	         -0.76058867	          0.00000000	         -0.01874311	          0.00000000	          0.00000000	          0.00000000	          0.00000000	          0.00000000	          0.00000000	          0.00000000	          4.36328717	          0.00000000	          0.00000000	          0.00000000	          0.00000000	
          0.53200000	         52.02170532	        620.80534937	        -32.00955596	         -0.75847532	          0.00000000	         -0.01861580	          0.00000000	          0.00000000	          0.00000000	          0.00000000	          0.00000000	          0.00000000	          0.00000000	          4.30638475	          0.00000000	          0.00000000	          0.00000000	          0.00000000	
          0.53600000	         55.87892765	        635.61236579	        -33.71114641	         -0.75659334	          0.00000000	         -0.01851484	          0.00000000	          0.00000000	          0.00000000	          0.00000000	          0.00000000	          0.00000000	          0.00000000	          4.24957575	          0.00000000	          0.00000000	          0.00000000	          0.00000000	
          0.54000000	         59.71317805	        650.97295435	        -35.06673726	         -0.75492133	          0.00000000	         -0.01844992	          0.00000000	          0.00000000	          0.00000000	          0.00000000	          0.00000000	          0.00000000	          0.00000000	          4.19039266	          0.00000000	          0.00000000	          0.00000000	          0.00000000	
          0.54400000	         63.43737114	        666.78037503	        -36.11482917	         -0.75344399	          0.00000000	         -0.01842529	          0.00000000	          0.00000000	          0.00000000	          0.00000000	          0.00000000	          0.00000000	          0.00000000	          4.12280176	          0.00000000	          0.00000000	          0.00000000	          0.00000000	
          0.54800000	         67.15883818	        682.88310882	        -36.96353884	         -0.75215332	          0.00000000	         -0.01844060	          0.00000000	          0.00000000	          0.00000000	          0.00000000	          0.00000000	          0.00000000	          0.00000000	          4.03969745	          0.00000000	          0.00000000	          0.00000000	          0.00000000	
          0.55200000	         71.14487157	        699.09609449	        -37.74759578	         -0.75104968	          0.00000000	         -0.01849261	          0.00000000	          0.00000000	          0.00000000	          0.00000000	          0.00000000	          0.00000000	          0.00000000	          3.93619481	          0.00000000	          0.00000000	          0.00000000	          0.00000000	
          0.55600000	         75.74320071	        715.20729678	        -38.56627649	         -0.75013947	          0.00000000	         -0.01857872	          0.00000000	          0.00000000	          0.00000000	          0.00000000	          0.00000000	          0.00000000	          0.00000000	          3.81279368	          0.00000000	          0.00000000	          0.00000000	          0.00000000	
          0.56000000	         81.27606938	        730.98410430	        -39.42485755	         -0.74942634	          0.00000000	         -0.01870299	          0.00000000	          0.00000000	          0.00000000	          0.00000000	          0.00000000	          0.00000000	          0.00000000	          3.67738366	          0.00000000	          0.00000000	          0.00000000	          0.00000000	
          0.56400000	         87.93717186	        746.18051203	        -40.21637408	         -0.74890322	          0.00000000	         -0.01887840	          0.00000000	          0.00000000	          0.00000000	          0.00000000	          0.00000000	          0.00000000	          0.00000000	          3.54531175	          0.00000000	          0.00000000	          0.00000000	          0.00000000	
          0.56800000	         95.73265255	        760.54899912	        -40.75955423	         -0.74855201	          0.00000000	         -0.01911924	          0.00000000	          0.00000000	          0.00000000	          0.00000000	          0.00000000	          0.00000000	          0.00000000	          3.43732035	          0.00000000	          0.00000000	          0.00000000	          0.00000000	
          0.57200000	        104.49102024	        773.85076909	        -40.86098020	         -0.74834512	          0.00000000	         -0.01943279	          0.00000000	          0.00000000	          0.00000000	          0.00000000	          0.00000000	          0.00000000	          0.00000000	          3.37584520	          0.00000000	          0.00000000	          0.00000000	          0.00000000	
          0.57600000	        113.92181633	        785.85588727	        -40.35704154	         -0.74824690	          0.00000000	         -0.01981945	          0.00000000	          0.00000000	          0.00000000	          0.00000000	          0.00000000	          0.00000000	          0.00000000	          3.38059197	          0.00000000	          0.00000000	          0.00000000	          0.00000000	
          0.58000000	        123.67975210	        796.34687672	        -39.13284476	         -0.74821606	          0.00000000	         -0.02027446	          0.00000000	          0.00000000	          0.00000000	          0.00000000	          0.00000000	          0.00000000	          0.00000000	          3.46433953	          0.00000000	          0.00000000	          0.00000000	          0.00000000	
          0.58400000	        133.41765692	        805.13575811	        -37.14149174	         -0.74820975	          0.00000000	         -0.02078747	          0.00000000	          0.00000000	          0.00000000	          0.00000000	          0.00000000	          0.00000000	          0.00000000	          3.62973415	          0.00000000	          0.00000000	          0.00000000	          0.00000000	
          0.58800000	        142.84207583	        812.07612749	        -34.42594510	         -0.74818685	          0.00000000	         -0.02134503	          0.00000000	          0.00000000	          0.00000000	          0.00000000	          0.00000000	          0.00000000	          0.00000000	          3.86767281	          0.00000000	          0.00000000	          0.00000000	          0.00000000	
          0.59200000	        151.77014553	        817.05429425	        -31.13092450	         -0.74811742	          0.00000000	         -0.02193053	          0.00000000	          0.00000000	          0.00000000	          0.00000000	          0.00000000	          0.00000000	          0.00000000	          4.15770133	          0.00000000	          0.00000000	          0.00000000	          0.00000000	
          0.59600000	        160.15599370	        819.96744215	        -27.49857875	         -0.74799735	          0.00000000	         -0.02252956	          0.00000000	          0.00000000	          0.00000000	          0.00000000	          0.00000000	          0.00000000	          0.00000000	          4.47051578	          0.00000000	          0.00000000	          0.00000000	          0.00000000	
